<svg width="93" height="40" viewBox="0 0 93 40" fill="none" xmlns="http://www.w3.org/2000/svg">
<mask id="path-1-inside-1_44_1159" fill="white">
<path fill-rule="evenodd" clip-rule="evenodd" d="M81.507 37.2883C80.4854 38.4725 78.4116 38.2949 78.071 36.5631C77.9084 35.7044 78.145 34.6684 78.5154 33.943C79.3448 32.3591 80.8407 31.0566 82.544 30.6274C82.544 31.6044 82.544 32.8921 82.5144 33.8839C82.4844 34.9793 82.2478 36.4149 81.507 37.2883ZM65.0235 13.8865C65.9715 13.9456 66.7269 14.9816 66.475 16.7431C66.164 18.8304 64.4311 21.0653 62.4615 21.5685C62.1503 20.8285 62.0024 19.3186 62.1799 17.8385C62.5059 15.1296 63.898 13.8271 65.0235 13.8865ZM28.1023 23.9812C26.636 22.0274 26.6951 19.6591 27.1545 17.4092C28.5909 20.636 32.4269 21.1986 34.7964 20.7249C34.4855 23.2116 33.1818 25.3875 30.931 25.3875C29.6721 25.4022 28.7536 24.8546 28.1023 23.9812ZM33.2858 14.8631C34.0084 15.6005 34.4959 16.6754 34.719 17.8684L34.7224 17.8829C34.7215 17.878 34.7201 17.8732 34.719 17.8684C33.0615 18.1045 31.4633 17.7936 30.2941 16.891C29.4501 16.225 29.2278 15.1741 29.5833 14.5376C30.1014 13.62 31.6568 13.2202 33.2858 14.8631ZM10.7154 2.72562C11.737 1.52687 13.8105 1.71899 14.1364 3.45099C14.2991 4.29462 14.077 5.33074 13.707 6.05599C12.8773 7.63974 11.3815 8.94224 9.67825 9.38637C9.67825 8.39487 9.66338 7.12174 9.70825 6.13012C9.73763 5.03474 9.97475 3.58412 10.7154 2.72562ZM86.3205 28.3923C86.3351 23.2413 86.3205 18.0901 86.3205 12.939C86.3205 11.6661 82.6624 11.5919 82.544 12.8799C82.544 13.3979 82.544 13.9307 82.529 14.4487C82.47 17.276 81.1223 22.5603 78.8859 24.4845C78.2786 25.0028 77.7305 25.0322 77.3458 24.7509C77.0049 24.4992 76.9159 23.863 76.9159 23.3153V22.6047C76.9159 19.4224 76.9309 16.1362 76.9159 12.9537C76.9159 11.6807 73.2579 11.5919 73.1394 12.8799C73.1394 15.8401 73.1394 18.7119 73.1544 21.6426C70.7401 25.4911 65.1569 27.297 62.8465 22.7379C64.2831 23.2856 65.8084 23.0191 66.8453 22.4715C68.6374 21.5241 69.9998 19.9552 70.2663 17.4685C70.518 10.1857 60.8918 9.19424 58.744 16.61C58.3888 17.8385 58.1963 19.1559 58.2408 20.4436C58.2849 21.6721 58.5368 22.8119 58.9663 23.8185C58.1811 24.5881 57.2779 25.121 56.3746 25.0915C55.1895 25.047 55.3084 23.5818 55.3084 22.7379V17.1871C55.3084 16.5211 55.3084 15.855 55.2489 15.2039C55.0566 13.2647 53.5754 11.7252 51.5021 11.5919C48.5546 11.5476 46.4814 14.286 45.4595 17.2909C45.4449 15.6182 45.4595 14.6264 45.4595 12.939C45.4449 11.6807 42.0534 11.5919 41.6683 12.9241C41.1795 14.6116 39.5799 15.929 38.084 16.7134C37.6251 15.6034 37.0476 14.5821 36.2479 13.7089C32.9598 10.1414 28.206 10.7929 25.4214 13.7382C23.2148 16.0771 22.5486 20.2956 23.7333 23.2559C22.8595 24.2922 21.66 25.1359 20.5936 25.0915C20.0603 25.0619 19.7641 24.7509 19.6308 24.2625C19.4974 23.7887 19.5273 23.2265 19.5273 22.7379C19.5273 20.8876 19.5123 19.0374 19.5273 17.1871C19.5273 16.5211 19.5273 15.855 19.4681 15.2039C19.2754 13.2647 18.135 11.7104 15.9729 11.5774C12.2554 11.4142 10.7596 15.0114 9.66338 17.9716V11.6512C10.4485 11.518 11.204 11.3255 11.959 11.1036C20.1491 8.75 18.5644 0.149992 12.4629 0.00211736C8.34563 -0.0866327 5.90175 2.62199 5.93163 6.73687V9.40125C4.4505 9.17937 3.33963 7.25512 2.71788 6.01174C2.62875 5.81924 2.53988 5.62674 2.45125 5.43424C2.37725 5.24187 2.16988 5.13849 1.977 5.19762C1.81438 5.24187 1.6515 5.30124 1.48838 5.36037C0.89625 5.62687 0.407125 6.08574 0.1705 6.69262C-0.258875 7.77312 0.1705 8.92774 0.9255 9.74174C2.16988 11.0444 4.1545 11.518 5.90175 11.6067C5.88688 16.7431 5.90175 21.8646 5.90175 27.0009C5.961 27.7262 6.9535 27.9188 7.531 27.9334C8.13838 27.9483 9.45625 27.7558 9.47125 26.927L9.51563 26.2904C9.76738 24.011 11.959 14.8929 14.7285 14.878C15.41 14.878 15.7508 15.3221 15.7508 15.9882V24.1146C15.7508 26.6309 17.1724 28.3183 19.7494 28.3183C21.7488 28.3331 23.5553 26.8824 24.6365 25.0767C24.7845 25.2691 24.9031 25.4762 25.066 25.6539C26.4729 27.297 28.5464 28.348 30.9161 28.3628C36.0845 28.2886 38.7355 23.8481 38.5434 19.4815C39.7429 18.8155 40.8241 17.9567 41.6531 16.891V27.0009C41.7125 27.7262 42.7494 27.9188 43.3271 27.9334C43.934 27.9483 45.2524 27.7558 45.2524 26.927L45.3115 26.2904L45.489 24.603C45.7559 22.2495 47.5183 14.8929 50.5246 14.878C51.1908 14.878 51.5319 15.3221 51.5319 15.9882V24.1146C51.5319 26.6309 52.9536 28.3183 55.545 28.3183C57.3373 28.3331 58.9663 27.1638 60.0623 25.6244C61.5135 27.4154 63.7354 28.4663 66.4008 28.4663C69.526 28.4663 71.7916 27.0898 73.3024 24.8694C73.643 26.779 74.6649 28.2886 77.168 28.3183C79.7594 28.3331 81.7294 24.7215 82.544 22.5454V28.3628C81.7735 28.4959 81.0185 28.6884 80.2634 28.9103C72.0733 31.2491 73.643 39.8638 79.7448 39.9971C83.8768 40.1008 86.3055 37.3919 86.2909 33.277C86.2909 32.5814 86.276 31.2788 86.2909 30.5978C87.757 30.8199 88.8825 32.759 89.4899 34.0024C89.5934 34.1948 89.6824 34.387 89.7565 34.5795C89.8453 34.772 90.0376 34.8608 90.2451 34.8163C90.408 34.772 90.5709 34.7129 90.7189 34.6386C91.3263 34.3724 91.8151 33.9284 92.052 33.3066C92.4815 32.2261 92.052 31.0864 91.2818 30.2721C90.0528 28.9549 88.053 28.4959 86.3205 28.3923Z"/>
</mask>
<path fill-rule="evenodd" clip-rule="evenodd" d="M81.507 37.2883C80.4854 38.4725 78.4116 38.2949 78.071 36.5631C77.9084 35.7044 78.145 34.6684 78.5154 33.943C79.3448 32.3591 80.8407 31.0566 82.544 30.6274C82.544 31.6044 82.544 32.8921 82.5144 33.8839C82.4844 34.9793 82.2478 36.4149 81.507 37.2883ZM65.0235 13.8865C65.9715 13.9456 66.7269 14.9816 66.475 16.7431C66.164 18.8304 64.4311 21.0653 62.4615 21.5685C62.1503 20.8285 62.0024 19.3186 62.1799 17.8385C62.5059 15.1296 63.898 13.8271 65.0235 13.8865ZM28.1023 23.9812C26.636 22.0274 26.6951 19.6591 27.1545 17.4092C28.5909 20.636 32.4269 21.1986 34.7964 20.7249C34.4855 23.2116 33.1818 25.3875 30.931 25.3875C29.6721 25.4022 28.7536 24.8546 28.1023 23.9812ZM33.2858 14.8631C34.0084 15.6005 34.4959 16.6754 34.719 17.8684L34.7224 17.8829C34.7215 17.878 34.7201 17.8732 34.719 17.8684C33.0615 18.1045 31.4633 17.7936 30.2941 16.891C29.4501 16.225 29.2278 15.1741 29.5833 14.5376C30.1014 13.62 31.6568 13.2202 33.2858 14.8631ZM10.7154 2.72562C11.737 1.52687 13.8105 1.71899 14.1364 3.45099C14.2991 4.29462 14.077 5.33074 13.707 6.05599C12.8773 7.63974 11.3815 8.94224 9.67825 9.38637C9.67825 8.39487 9.66338 7.12174 9.70825 6.13012C9.73763 5.03474 9.97475 3.58412 10.7154 2.72562ZM86.3205 28.3923C86.3351 23.2413 86.3205 18.0901 86.3205 12.939C86.3205 11.6661 82.6624 11.5919 82.544 12.8799C82.544 13.3979 82.544 13.9307 82.529 14.4487C82.47 17.276 81.1223 22.5603 78.8859 24.4845C78.2786 25.0028 77.7305 25.0322 77.3458 24.7509C77.0049 24.4992 76.9159 23.863 76.9159 23.3153V22.6047C76.9159 19.4224 76.9309 16.1362 76.9159 12.9537C76.9159 11.6807 73.2579 11.5919 73.1394 12.8799C73.1394 15.8401 73.1394 18.7119 73.1544 21.6426C70.7401 25.4911 65.1569 27.297 62.8465 22.7379C64.2831 23.2856 65.8084 23.0191 66.8453 22.4715C68.6374 21.5241 69.9998 19.9552 70.2663 17.4685C70.518 10.1857 60.8918 9.19424 58.744 16.61C58.3888 17.8385 58.1963 19.1559 58.2408 20.4436C58.2849 21.6721 58.5368 22.8119 58.9663 23.8185C58.1811 24.5881 57.2779 25.121 56.3746 25.0915C55.1895 25.047 55.3084 23.5818 55.3084 22.7379V17.1871C55.3084 16.5211 55.3084 15.855 55.2489 15.2039C55.0566 13.2647 53.5754 11.7252 51.5021 11.5919C48.5546 11.5476 46.4814 14.286 45.4595 17.2909C45.4449 15.6182 45.4595 14.6264 45.4595 12.939C45.4449 11.6807 42.0534 11.5919 41.6683 12.9241C41.1795 14.6116 39.5799 15.929 38.084 16.7134C37.6251 15.6034 37.0476 14.5821 36.2479 13.7089C32.9598 10.1414 28.206 10.7929 25.4214 13.7382C23.2148 16.0771 22.5486 20.2956 23.7333 23.2559C22.8595 24.2922 21.66 25.1359 20.5936 25.0915C20.0603 25.0619 19.7641 24.7509 19.6308 24.2625C19.4974 23.7887 19.5273 23.2265 19.5273 22.7379C19.5273 20.8876 19.5123 19.0374 19.5273 17.1871C19.5273 16.5211 19.5273 15.855 19.4681 15.2039C19.2754 13.2647 18.135 11.7104 15.9729 11.5774C12.2554 11.4142 10.7596 15.0114 9.66338 17.9716V11.6512C10.4485 11.518 11.204 11.3255 11.959 11.1036C20.1491 8.75 18.5644 0.149992 12.4629 0.00211736C8.34563 -0.0866327 5.90175 2.62199 5.93163 6.73687V9.40125C4.4505 9.17937 3.33963 7.25512 2.71788 6.01174C2.62875 5.81924 2.53988 5.62674 2.45125 5.43424C2.37725 5.24187 2.16988 5.13849 1.977 5.19762C1.81438 5.24187 1.6515 5.30124 1.48838 5.36037C0.89625 5.62687 0.407125 6.08574 0.1705 6.69262C-0.258875 7.77312 0.1705 8.92774 0.9255 9.74174C2.16988 11.0444 4.1545 11.518 5.90175 11.6067C5.88688 16.7431 5.90175 21.8646 5.90175 27.0009C5.961 27.7262 6.9535 27.9188 7.531 27.9334C8.13838 27.9483 9.45625 27.7558 9.47125 26.927L9.51563 26.2904C9.76738 24.011 11.959 14.8929 14.7285 14.878C15.41 14.878 15.7508 15.3221 15.7508 15.9882V24.1146C15.7508 26.6309 17.1724 28.3183 19.7494 28.3183C21.7488 28.3331 23.5553 26.8824 24.6365 25.0767C24.7845 25.2691 24.9031 25.4762 25.066 25.6539C26.4729 27.297 28.5464 28.348 30.9161 28.3628C36.0845 28.2886 38.7355 23.8481 38.5434 19.4815C39.7429 18.8155 40.8241 17.9567 41.6531 16.891V27.0009C41.7125 27.7262 42.7494 27.9188 43.3271 27.9334C43.934 27.9483 45.2524 27.7558 45.2524 26.927L45.3115 26.2904L45.489 24.603C45.7559 22.2495 47.5183 14.8929 50.5246 14.878C51.1908 14.878 51.5319 15.3221 51.5319 15.9882V24.1146C51.5319 26.6309 52.9536 28.3183 55.545 28.3183C57.3373 28.3331 58.9663 27.1638 60.0623 25.6244C61.5135 27.4154 63.7354 28.4663 66.4008 28.4663C69.526 28.4663 71.7916 27.0898 73.3024 24.8694C73.643 26.779 74.6649 28.2886 77.168 28.3183C79.7594 28.3331 81.7294 24.7215 82.544 22.5454V28.3628C81.7735 28.4959 81.0185 28.6884 80.2634 28.9103C72.0733 31.2491 73.643 39.8638 79.7448 39.9971C83.8768 40.1008 86.3055 37.3919 86.2909 33.277C86.2909 32.5814 86.276 31.2788 86.2909 30.5978C87.757 30.8199 88.8825 32.759 89.4899 34.0024C89.5934 34.1948 89.6824 34.387 89.7565 34.5795C89.8453 34.772 90.0376 34.8608 90.2451 34.8163C90.408 34.772 90.5709 34.7129 90.7189 34.6386C91.3263 34.3724 91.8151 33.9284 92.052 33.3066C92.4815 32.2261 92.052 31.0864 91.2818 30.2721C90.0528 28.9549 88.053 28.4959 86.3205 28.3923Z" fill="#FFA638"/>
<path d="M81.507 37.2883L82.2642 37.9415L82.2697 37.9351L81.507 37.2883ZM78.071 36.5631L77.0885 36.7492L77.0898 36.7561L78.071 36.5631ZM78.5154 33.943L77.6294 33.4791L77.6248 33.4883L78.5154 33.943ZM82.544 30.6274H83.544V29.3441L82.2997 29.6577L82.544 30.6274ZM82.5144 33.8839L81.5148 33.854L81.5148 33.8565L82.5144 33.8839ZM65.0235 13.8865L65.0858 12.8884L65.0762 12.8879L65.0235 13.8865ZM66.475 16.7431L67.4641 16.8905L67.465 16.8847L66.475 16.7431ZM62.4615 21.5685L61.5397 21.9562L61.8739 22.7508L62.7091 22.5374L62.4615 21.5685ZM62.1799 17.8385L61.1871 17.719L61.187 17.7194L62.1799 17.8385ZM28.1023 23.9812L28.9039 23.3834L28.9021 23.381L28.1023 23.9812ZM27.1545 17.4092L28.0681 17.0026L26.799 14.1517L26.1747 17.2092L27.1545 17.4092ZM34.7964 20.7249L35.7887 20.8489L35.9608 19.4723L34.6003 19.7443L34.7964 20.7249ZM30.931 25.3875V24.3874L30.9193 24.3876L30.931 25.3875ZM33.2858 14.8631L34 14.1632L33.9959 14.159L33.2858 14.8631ZM34.7224 17.8829L33.7484 18.1096L35.7067 17.7062L34.7224 17.8829ZM30.2941 16.891L29.6746 17.6761L29.683 17.6825L30.2941 16.891ZM29.5833 14.5376L28.7125 14.0459L28.7102 14.05L29.5833 14.5376ZM10.7154 2.72562L11.4726 3.37884L11.4765 3.37426L10.7154 2.72562ZM14.1364 3.45099L13.1536 3.6359L13.1545 3.64042L14.1364 3.45099ZM13.707 6.05599L14.5928 6.5201L14.5978 6.51044L13.707 6.05599ZM9.67825 9.38637H8.67825V10.6806L9.93057 10.354L9.67825 9.38637ZM9.70825 6.13012L10.7072 6.17533L10.7076 6.16613L10.7079 6.15693L9.70825 6.13012ZM86.3205 28.3923L85.3205 28.3894L85.3178 29.3341L86.2608 29.3905L86.3205 28.3923ZM82.544 12.8799L81.5482 12.7884L81.544 12.834V12.8799H82.544ZM82.529 14.4487L81.5294 14.4198L81.5292 14.4279L82.529 14.4487ZM78.8859 24.4845L79.5351 25.2452L79.5381 25.2425L78.8859 24.4845ZM77.3458 24.7509L76.7519 25.5554L76.7555 25.5581L77.3458 24.7509ZM76.9159 12.9537H75.9159L75.9159 12.9585L76.9159 12.9537ZM73.1394 12.8799L72.1436 12.7883L72.1394 12.834V12.8799H73.1394ZM73.1544 21.6426L74.0015 22.174L74.1559 21.928L74.1544 21.6375L73.1544 21.6426ZM62.8465 22.7379L63.2028 21.8035L60.7847 20.8815L61.9545 23.1899L62.8465 22.7379ZM66.8453 22.4715L67.3123 23.3557L67.3126 23.3556L66.8453 22.4715ZM70.2663 17.4685L71.2606 17.5751L71.2644 17.5391L71.2657 17.503L70.2663 17.4685ZM58.744 16.61L57.7835 16.3318L57.7834 16.3322L58.744 16.61ZM58.2408 20.4436L57.2414 20.4782L57.2414 20.4795L58.2408 20.4436ZM58.9663 23.8185L59.6663 24.5326L60.1541 24.0544L59.886 23.4261L58.9663 23.8185ZM56.3746 25.0915L56.3371 26.0908L56.342 26.091L56.3746 25.0915ZM55.2489 15.2039L56.2448 15.1129L56.244 15.1052L55.2489 15.2039ZM51.5021 11.5919L51.5663 10.5939L51.5418 10.5924L51.5171 10.592L51.5021 11.5919ZM45.4595 17.2909L44.4595 17.2996L46.4063 17.6128L45.4595 17.2909ZM45.4595 12.939H46.4596L46.4594 12.9274L45.4595 12.939ZM41.6683 12.9241L42.6288 13.2023L42.6289 13.2018L41.6683 12.9241ZM38.084 16.7134L37.1599 17.0954L37.5783 18.1077L38.5484 17.599L38.084 16.7134ZM36.2479 13.7089L36.9853 13.0335L36.9832 13.0311L36.2479 13.7089ZM25.4214 13.7382L24.6947 13.0512L24.694 13.052L25.4214 13.7382ZM23.7333 23.2559L24.4978 23.9004L24.8847 23.4416L24.6617 22.8843L23.7333 23.2559ZM20.5936 25.0915L20.5382 26.0901L20.5521 26.0906L20.5936 25.0915ZM19.6308 24.2625L20.5955 23.999L20.5933 23.9915L19.6308 24.2625ZM19.5273 17.1871L20.5273 17.1952V17.1871H19.5273ZM19.4681 15.2039L20.4641 15.1134L20.4632 15.105L19.4681 15.2039ZM15.9729 11.5774L16.0343 10.5793L16.0255 10.5787L16.0167 10.5783L15.9729 11.5774ZM9.66338 17.9716H8.66338L10.6011 18.3189L9.66338 17.9716ZM9.66338 11.6512L9.49605 10.6653L8.66338 10.8067V11.6512H9.66338ZM11.959 11.1036L11.6828 10.1425L11.6771 10.1442L11.959 11.1036ZM12.4629 0.00211736L12.4871 -0.997593L12.4844 -0.99765L12.4629 0.00211736ZM5.93163 6.73687H6.93165L6.9316 6.72961L5.93163 6.73687ZM5.93163 9.40125L5.78348 10.3902L6.93163 10.5622V9.40125H5.93163ZM2.71788 6.01174L1.81042 6.43189L1.81674 6.44554L1.82347 6.45899L2.71788 6.01174ZM2.45125 5.43424L1.51792 5.79326L1.52946 5.82325L1.54289 5.85244L2.45125 5.43424ZM1.977 5.19762L2.23955 6.16254L2.25489 6.15836L2.27008 6.15371L1.977 5.19762ZM1.48838 5.36037L1.14762 4.42022L1.11225 4.43304L1.07795 4.44847L1.48838 5.36037ZM0.1705 6.69262L1.09983 7.06192L1.10218 7.05589L0.1705 6.69262ZM0.9255 9.74174L0.192322 10.4218L0.197327 10.4272L0.202411 10.4325L0.9255 9.74174ZM5.90175 11.6067L6.90175 11.6096L6.90451 10.6564L5.95248 10.608L5.90175 11.6067ZM5.90175 27.0009H4.90175V27.0416L4.90507 27.0823L5.90175 27.0009ZM7.531 27.9334L7.50568 28.9331L7.50652 28.9331L7.531 27.9334ZM9.47125 26.927L8.47367 26.8575L8.47188 26.8832L8.47142 26.9089L9.47125 26.927ZM9.51563 26.2904L8.52167 26.1806L8.51945 26.2007L8.51805 26.2208L9.51563 26.2904ZM14.7285 14.878V13.878L14.7231 13.878L14.7285 14.878ZM19.7494 28.3183L19.7568 27.3183H19.7494V28.3183ZM24.6365 25.0767L25.4291 24.467L24.5333 23.3026L23.7786 24.563L24.6365 25.0767ZM25.066 25.6539L25.8256 25.0035L25.8145 24.9906L25.8031 24.978L25.066 25.6539ZM30.9161 28.3628L30.9099 29.3627L30.9202 29.3628L30.9305 29.3626L30.9161 28.3628ZM38.5434 19.4815L38.058 18.6072L37.5172 18.9075L37.5443 19.5255L38.5434 19.4815ZM41.6531 16.891H42.6531V13.9767L40.8638 16.277L41.6531 16.891ZM41.6531 27.0009H40.6531V27.0417L40.6565 27.0825L41.6531 27.0009ZM43.3271 27.9334L43.3018 28.9331L43.3026 28.9331L43.3271 27.9334ZM45.2524 26.927L44.2567 26.8345L44.2524 26.8807V26.927H45.2524ZM45.3115 26.2904L44.3169 26.1858L44.3158 26.1979L45.3115 26.2904ZM45.489 24.603L44.4953 24.4903L44.4945 24.4984L45.489 24.603ZM50.5246 14.878V13.878L50.5197 13.878L50.5246 14.878ZM55.545 28.3183L55.5533 27.3183H55.545V28.3183ZM60.0623 25.6244L60.8392 24.9948L60.0108 23.9725L59.2476 25.0444L60.0623 25.6244ZM73.3024 24.8694L74.2868 24.6938L73.856 22.2781L72.4756 24.3068L73.3024 24.8694ZM77.168 28.3183L77.1562 29.3182L77.1623 29.3182L77.168 28.3183ZM82.544 22.5454H83.544L81.6075 22.1948L82.544 22.5454ZM82.544 28.3628L82.7143 29.3482L83.544 29.2048V28.3628H82.544ZM80.2634 28.9103L80.538 29.8718L80.5453 29.8697L80.2634 28.9103ZM79.7448 39.9971L79.7698 38.9974L79.7666 38.9974L79.7448 39.9971ZM86.2909 33.277H85.2909L85.2909 33.2806L86.2909 33.277ZM86.2909 30.5978L86.4407 29.609L85.316 29.4386L85.2911 30.5759L86.2909 30.5978ZM89.4899 34.0024L88.5914 34.4413L88.6 34.4589L88.6093 34.4762L89.4899 34.0024ZM89.7565 34.5795L88.8233 34.9388L88.8349 34.9689L88.8484 34.9982L89.7565 34.5795ZM90.2451 34.8163L90.4548 35.794L90.4812 35.7884L90.5073 35.7813L90.2451 34.8163ZM90.7189 34.6386L90.3174 33.7228L90.2937 33.7332L90.2705 33.7448L90.7189 34.6386ZM92.052 33.3066L91.1227 32.9372L91.1201 32.9439L91.1175 32.9506L92.052 33.3066ZM91.2818 30.2721L90.5506 30.9543L90.5553 30.9593L91.2818 30.2721ZM80.7498 36.6351C80.4711 36.9581 80.0478 37.0901 79.6953 37.0323C79.3907 36.9824 79.1366 36.799 79.0522 36.3701L77.0898 36.7561C77.3461 38.059 78.2991 38.8303 79.3719 39.006C80.3969 39.174 81.5213 38.8027 82.2642 37.9415L80.7498 36.6351ZM79.0536 36.3771C78.9425 35.7904 79.1081 34.9811 79.406 34.3978L77.6248 33.4883C77.1819 34.3556 76.8743 35.6184 77.0885 36.7492L79.0536 36.3771ZM79.4013 34.4069C80.1186 33.037 81.4004 31.9468 82.7884 31.5971L82.2997 29.6577C80.2809 30.1664 78.5709 31.6812 77.6295 33.4791L79.4013 34.4069ZM81.544 30.6274C81.544 31.6088 81.5439 32.8803 81.5148 33.854L83.5139 33.9137C83.5441 32.904 83.544 31.6 83.544 30.6274H81.544ZM81.5148 33.8565C81.5013 34.3501 81.4411 34.9055 81.3087 35.4204C81.1741 35.9439 80.9812 36.3622 80.7444 36.6414L82.2697 37.9351C82.7736 37.3409 83.0693 36.6047 83.2458 35.9183C83.4244 35.2232 83.4975 34.513 83.514 33.9113L81.5148 33.8565ZM64.9613 14.8846C65.0573 14.8905 65.1989 14.9396 65.3293 15.1696C65.4683 15.4147 65.5887 15.8767 65.4851 16.6016L67.465 16.8847C67.6132 15.8481 67.4819 14.9113 67.0691 14.1832C66.6478 13.4401 65.9377 12.9416 65.0858 12.8884L64.9613 14.8846ZM65.4859 16.5957C65.3606 17.4371 64.9366 18.3544 64.3147 19.1186C63.6894 19.8868 62.9345 20.4155 62.214 20.5996L62.7091 22.5374C63.9582 22.2182 65.0545 21.3779 65.8658 20.3811C66.6805 19.3801 67.2785 18.1364 67.4641 16.8905L65.4859 16.5957ZM63.3833 21.1808C63.2864 20.9504 63.1839 20.5072 63.1341 19.8994C63.0857 19.3092 63.0923 18.629 63.1728 17.9576L61.187 17.7194C61.09 18.5281 61.0818 19.3429 61.1408 20.0627C61.1983 20.7648 61.3254 21.4466 61.5397 21.9562L63.3833 21.1808ZM63.1727 17.958C63.3187 16.7454 63.6938 15.9317 64.0804 15.452C64.477 14.9601 64.824 14.8774 64.9708 14.8851L65.0762 12.8879C64.0975 12.8363 63.1857 13.3751 62.5233 14.1968C61.8511 15.0308 61.3671 16.2227 61.1871 17.719L63.1727 17.958ZM28.9021 23.381C27.6999 21.779 27.6917 19.7772 28.1343 17.6093L26.1747 17.2092C25.6986 19.5411 25.5722 22.2758 27.3024 24.5815L28.9021 23.381ZM26.2409 17.8159C27.0974 19.74 28.6696 20.8494 30.3054 21.4021C31.9232 21.9487 33.654 21.9731 34.9924 21.7055L34.6003 19.7443C33.5692 19.9504 32.1974 19.9303 30.9456 19.5074C29.7119 19.0905 28.648 18.3052 28.0681 17.0026L26.2409 17.8159ZM33.8041 20.6008C33.6636 21.7251 33.3049 22.709 32.7934 23.3857C32.2998 24.0388 31.687 24.3875 30.931 24.3875V26.3875C32.4258 26.3875 33.5902 25.6483 34.3889 24.5917C35.1697 23.5588 35.6183 22.2114 35.7887 20.8489L33.8041 20.6008ZM30.9193 24.3876C30.0117 24.3982 29.3837 24.0267 28.9039 23.3834L27.3006 24.5791C28.1236 25.6825 29.3326 26.4063 30.9427 26.3874L30.9193 24.3876ZM32.5715 15.563C33.1189 16.1216 33.5384 16.9955 33.736 18.0522L35.702 17.6845C35.4533 16.3552 34.8979 15.0794 34 14.1632L32.5715 15.563ZM33.7451 18.0951L33.7484 18.1096L35.6963 17.6561L35.693 17.6416L33.7451 18.0951ZM35.7067 17.7062C35.7004 17.6716 35.6937 17.6444 35.6917 17.636C35.6911 17.6336 35.6905 17.6315 35.6903 17.6307C35.69 17.6293 35.6901 17.6299 35.6902 17.6302C35.6904 17.631 35.6917 17.6363 35.6934 17.6435L33.7446 18.0932C33.7468 18.1029 33.7488 18.1106 33.7496 18.1138C33.7498 18.1147 33.75 18.1155 33.7501 18.116C33.7502 18.1163 33.7502 18.1165 33.7503 18.1166C33.7503 18.1168 33.7503 18.1169 33.7504 18.117C33.7504 18.1173 33.7502 18.1165 33.7499 18.1152C33.7493 18.1129 33.7477 18.1061 33.7457 18.0972C33.7437 18.0881 33.7409 18.0752 33.7381 18.0595L35.7067 17.7062ZM34.578 16.8784C33.1162 17.0866 31.8096 16.7977 30.9052 16.0995L29.683 17.6825C31.1169 18.7896 33.0068 19.1224 34.86 18.8584L34.578 16.8784ZM30.9136 16.106C30.659 15.9051 30.5134 15.6582 30.4533 15.4389C30.3897 15.207 30.4336 15.0659 30.4563 15.0252L28.7102 14.05C28.0571 15.2193 28.5465 16.7858 29.6747 17.676L30.9136 16.106ZM30.454 15.0293C30.5291 14.8963 30.7115 14.7446 31.032 14.7401C31.3497 14.7356 31.8985 14.8843 32.5757 15.5672L33.9959 14.159C33.044 13.1991 32.0006 12.7262 31.0038 12.7403C30.0099 12.7543 29.1555 13.2613 28.7125 14.0459L30.454 15.0293ZM11.4765 3.37426C11.7552 3.04725 12.1752 2.9177 12.5221 2.97562C12.8218 3.02567 13.0731 3.20819 13.1536 3.6359L15.1191 3.26609C14.8737 1.9618 13.9254 1.18226 12.8515 1.00293C11.8247 0.831474 10.6972 1.20524 9.95428 2.07698L11.4765 3.37426ZM13.1545 3.64042C13.2658 4.21746 13.1096 5.02656 12.8162 5.60155L14.5978 6.51044C15.0444 5.63493 15.3325 4.37177 15.1183 3.26157L13.1545 3.64042ZM12.8212 5.59191C12.104 6.96089 10.8206 8.05505 9.42594 8.41873L9.93057 10.354C11.9424 9.82943 13.6505 8.31859 14.5928 6.52007L12.8212 5.59191ZM10.6783 9.38637C10.6783 8.37329 10.6637 7.13716 10.7072 6.17533L8.70927 6.08491C8.66305 7.10633 8.67825 8.41645 8.67825 9.38637H10.6783ZM10.7079 6.15693C10.7211 5.66331 10.7813 5.10415 10.9138 4.58729C11.0488 4.06041 11.2413 3.64691 11.4726 3.37883L9.9582 2.07241C9.44885 2.66283 9.15244 3.40389 8.9764 4.09079C8.7978 4.78771 8.72475 5.50155 8.70861 6.10331L10.7079 6.15693ZM87.3205 28.3951C87.3351 23.2424 87.3205 18.0861 87.3205 12.939H85.3205C85.3205 18.0941 85.3351 23.2401 85.3205 28.3894L87.3205 28.3951ZM87.3205 12.939C87.3205 12.0543 86.6697 11.5458 86.1805 11.3105C85.6683 11.0641 85.0546 10.9593 84.4946 10.9493C83.9334 10.9392 83.3154 11.0223 82.7898 11.2477C82.289 11.4626 81.6272 11.9291 81.5482 12.7884L83.5398 12.9714C83.52 13.1867 83.3599 13.1794 83.5783 13.0857C83.7719 13.0027 84.0906 12.9423 84.4587 12.9489C84.8281 12.9556 85.1363 13.0275 85.3137 13.1128C85.514 13.2092 85.3205 13.1873 85.3205 12.939H87.3205ZM81.544 12.8799C81.544 13.4005 81.5439 13.9187 81.5294 14.4198L83.5286 14.4777C83.5441 13.9427 83.544 13.3953 83.544 12.8799H81.544ZM81.5292 14.4279C81.5022 15.7256 81.1726 17.6553 80.5732 19.4955C79.9621 21.3712 79.1352 22.9508 78.2337 23.7265L79.5381 25.2425C80.873 24.094 81.8381 22.0693 82.4748 20.115C83.123 18.1251 83.4969 15.9991 83.5288 14.4696L81.5292 14.4279ZM78.2367 23.7239C78.0333 23.8974 77.9149 23.9242 77.8921 23.9274C77.8825 23.9288 77.8892 23.9265 77.9056 23.9306C77.9218 23.9347 77.9328 23.9413 77.9361 23.9437L76.7555 25.5581C77.159 25.8532 77.6546 25.9811 78.1727 25.9077C78.6719 25.8369 79.1312 25.5898 79.5351 25.2451L78.2367 23.7239ZM77.9397 23.9463C78.0002 23.991 78.0187 24.0296 78.0135 24.0201C78.008 24.01 77.9912 23.9738 77.973 23.9012C77.9356 23.7517 77.9159 23.5455 77.9159 23.3153H75.9159C75.9159 23.6328 75.9407 24.0185 76.033 24.387C76.1183 24.728 76.303 25.2241 76.7519 25.5554L77.9397 23.9463ZM77.9159 23.3153V22.6047H75.9159V23.3153H77.9159ZM77.9159 22.6047C77.9159 19.429 77.9309 16.1343 77.9159 12.949L75.9159 12.9585C75.9309 16.1382 75.9159 19.4158 75.9159 22.6047H77.9159ZM77.9159 12.9537C77.9159 12.0705 77.267 11.561 76.7789 11.3243C76.2673 11.0762 75.654 10.9689 75.094 10.9567C74.5329 10.9444 73.9144 11.025 73.3882 11.2488C72.8864 11.4621 72.2228 11.9275 72.1436 12.7883L74.1352 12.9715C74.1152 13.1882 73.9533 13.1817 74.1708 13.0893C74.3637 13.0073 74.682 12.9481 75.0502 12.9562C75.4194 12.9643 75.7281 13.0374 75.9061 13.1238C76.1075 13.2215 75.9159 13.2005 75.9159 12.9537H77.9159ZM72.1394 12.8799C72.1394 15.8397 72.1394 18.714 72.1544 21.6477L74.1544 21.6375C74.1394 18.7097 74.1394 15.8405 74.1394 12.8799H72.1394ZM72.3073 21.1112C71.2314 22.8262 69.4607 24.0529 67.7819 24.3594C66.9554 24.5103 66.1809 24.4345 65.5137 24.1244C64.8539 23.8179 64.2267 23.2491 63.7385 22.2858L61.9545 23.1899C62.6216 24.5062 63.5587 25.4214 64.6709 25.9382C65.7758 26.4516 66.9812 26.5386 68.1411 26.3269C70.4351 25.908 72.6631 24.3075 74.0015 22.174L72.3073 21.1112ZM62.4903 23.6723C64.2422 24.3402 66.0685 24.0127 67.3123 23.3557L66.3783 21.5872C65.5483 22.0256 64.3241 22.231 63.2028 21.8035L62.4903 23.6723ZM67.3126 23.3556C69.3526 22.2772 70.9534 20.4413 71.2606 17.5751L69.272 17.3619C69.0461 19.4692 67.9222 20.7711 66.3779 21.5874L67.3126 23.3556ZM71.2657 17.503C71.3366 15.4511 70.7089 13.7635 69.6176 12.5503C68.5338 11.3454 67.0449 10.6669 65.4921 10.5311C62.3598 10.2571 58.9866 12.1776 57.7835 16.3318L59.7045 16.8882C60.6491 13.6267 63.163 12.335 65.3178 12.5235C66.4086 12.6189 67.4133 13.0904 68.1307 13.8879C68.8406 14.6771 69.3218 15.8445 69.2669 17.434L71.2657 17.503ZM57.7834 16.3322C57.403 17.6477 57.1927 19.0709 57.2414 20.4782L59.2402 20.4091C59.1998 19.2409 59.3745 18.0293 59.7047 16.8878L57.7834 16.3322ZM57.2414 20.4795C57.2896 21.8219 57.5654 23.0835 58.0465 24.2109L59.886 23.4261C59.5081 22.5402 59.2802 21.5223 59.2401 20.4077L57.2414 20.4795ZM58.2662 23.1044C57.5536 23.803 56.9038 24.1082 56.4073 24.092L56.342 26.091C57.652 26.1338 58.8087 25.3733 59.6663 24.5326L58.2662 23.1044ZM56.4122 24.0922C56.3427 24.0896 56.377 24.0781 56.4181 24.1195C56.436 24.1376 56.4026 24.1147 56.3677 23.9737C56.3335 23.836 56.3144 23.6541 56.3079 23.4267C56.301 23.1863 56.3084 22.9914 56.3084 22.7379H54.3084C54.3084 23.069 54.27 23.8242 54.4265 24.4552C54.51 24.7916 54.6691 25.1961 54.998 25.5278C55.3501 25.8829 55.814 26.0712 56.3371 26.0908L56.4122 24.0922ZM56.3084 22.7379V17.1871H54.3084V22.7379H56.3084ZM56.3084 17.1871C56.3084 16.5294 56.3091 15.8172 56.2447 15.1129L54.253 15.2949C54.3077 15.8928 54.3084 16.5128 54.3084 17.1871H56.3084ZM56.244 15.1052C56.0052 12.6962 54.1454 10.7598 51.5663 10.5939L51.4379 12.5898C53.0054 12.6906 54.1081 13.8333 54.2538 15.3025L56.244 15.1052ZM51.5171 10.592C49.6986 10.5647 48.192 11.405 47.038 12.6047C45.8939 13.7941 45.0559 15.3717 44.5128 16.9689L46.4063 17.6128C46.885 16.2052 47.5946 14.9111 48.4794 13.9912C49.3544 13.0816 50.3582 12.5748 51.4871 12.5918L51.5171 10.592ZM46.4595 17.2821C46.4449 15.6142 46.4595 14.6406 46.4595 12.939H44.4595C44.4595 14.6121 44.4449 15.6223 44.4595 17.2996L46.4595 17.2821ZM46.4594 12.9274C46.4496 12.0832 45.8573 11.5738 45.3655 11.3257C44.8655 11.0735 44.2675 10.9682 43.7173 10.9602C43.162 10.9522 42.5565 11.0417 42.0276 11.2681C41.5119 11.4888 40.9202 11.9108 40.7076 12.6464L42.6289 13.2018C42.6088 13.2713 42.5856 13.2048 42.8145 13.1068C43.0303 13.0145 43.3458 12.9551 43.6884 12.96C44.036 12.965 44.3127 13.0346 44.4647 13.1113C44.625 13.1922 44.4621 13.1657 44.4596 12.9506L46.4594 12.9274ZM40.7077 12.6459C40.3327 13.9408 39.0302 15.0881 37.6196 15.8277L38.5484 17.599C40.1295 16.7699 42.0263 15.2825 42.6288 13.2023L40.7077 12.6459ZM39.0082 16.3313C38.5195 15.1493 37.8865 14.0175 36.9853 13.0335L35.5104 14.3843C36.2088 15.1468 36.7308 16.0575 37.1599 17.0954L39.0082 16.3313ZM36.9832 13.0311C33.2378 8.9675 27.8087 9.75753 24.6947 13.0512L26.148 14.4252C28.6033 11.8282 32.6817 11.3152 35.5126 14.3866L36.9832 13.0311ZM24.694 13.052C23.4265 14.3955 22.6396 16.2305 22.32 18.0951C22.0002 19.9607 22.1323 21.9469 22.8048 23.6274L24.6617 22.8843C24.1496 21.6046 24.0224 20.0015 24.2912 18.433C24.5602 16.8636 25.2097 15.4198 26.1488 14.4245L24.694 13.052ZM22.9687 22.6113C22.5862 23.065 22.1459 23.4591 21.7103 23.7281C21.265 24.003 20.8977 24.1033 20.6352 24.0924L20.5521 26.0906C21.3559 26.1241 22.1215 25.8247 22.7611 25.4298C23.4103 25.029 24.0065 24.4832 24.4978 23.9004L22.9687 22.6113ZM20.6491 24.093C20.6077 24.0907 20.595 24.0844 20.6007 24.0867C20.6081 24.0896 20.6213 24.0968 20.6334 24.1078C20.6574 24.1295 20.6283 24.1192 20.5954 23.999L18.6661 24.526C18.7666 24.8941 18.9523 25.2836 19.291 25.5903C19.6417 25.9079 20.0768 26.0643 20.5382 26.09L20.6491 24.093ZM20.5933 23.9915C20.5082 23.6891 20.5273 23.3225 20.5273 22.7379H18.5273C18.5273 23.1305 18.4866 23.8884 18.6682 24.5335L20.5933 23.9915ZM20.5273 22.7379C20.5273 20.8761 20.5123 19.0408 20.5272 17.1952L18.5273 17.179C18.5122 19.034 18.5273 20.8991 18.5273 22.7379H20.5273ZM20.5273 17.1871C20.5273 16.5293 20.528 15.8174 20.464 15.1134L18.4722 15.2943C18.5266 15.8926 18.5273 16.5129 18.5273 17.1871H20.5273ZM20.4632 15.105C20.351 13.9755 19.9559 12.8866 19.2043 12.0465C18.4384 11.1906 17.3612 10.6609 16.0343 10.5793L15.9115 12.5755C16.7466 12.6269 17.3207 12.9408 17.7138 13.3801C18.121 13.8353 18.3925 14.4931 18.473 15.3028L20.4632 15.105ZM16.0167 10.5783C13.7563 10.4791 12.1677 11.5531 11.0471 12.9876C9.96297 14.3754 9.26931 16.1562 8.72561 17.6243L10.6011 18.3189C11.1537 16.8268 11.756 15.3289 12.6232 14.2188C13.4539 13.1555 14.472 12.5125 15.929 12.5764L16.0167 10.5783ZM10.6634 17.9716V11.6512H8.66338V17.9716H10.6634ZM9.8307 12.6371C10.6677 12.4951 11.4637 12.2915 12.241 12.0631L11.6771 10.1442C10.9443 10.3595 10.2293 10.5409 9.49605 10.6653L9.8307 12.6371ZM12.2352 12.0647C16.6859 10.7857 18.7344 7.689 18.5688 4.67093C18.4058 1.69972 16.0717 -0.910715 12.4871 -0.997589L12.4386 1.00182C14.9556 1.06282 16.4646 2.82633 16.5718 4.78049C16.6764 6.6878 15.4222 9.06791 11.6828 10.1425L12.2352 12.0647ZM12.4844 -0.99765C10.1938 -1.04703 8.26472 -0.313565 6.91723 1.10423C5.57799 2.51333 4.91529 4.49046 4.93165 6.74413L6.9316 6.72961C6.91809 4.8684 7.46238 3.43378 8.36693 2.48204C9.26322 1.53899 10.6147 0.962511 12.4413 1.00189L12.4844 -0.99765ZM4.93163 6.73687V9.40125H6.93163V6.73687H4.93163ZM6.07977 8.41228C5.71266 8.35729 5.26764 8.05985 4.77808 7.45833C4.30809 6.88084 3.91398 6.16782 3.61228 5.56449L1.82347 6.45899C2.14352 7.09904 2.61573 7.96984 3.22689 8.72078C3.81849 9.4477 4.66946 10.2233 5.78348 10.3902L6.07977 8.41228ZM3.62533 5.5916C3.53651 5.39975 3.44793 5.2079 3.35961 5.01605L1.54289 5.85244C1.63182 6.04559 1.72099 6.23874 1.81042 6.43189L3.62533 5.5916ZM3.38458 5.07522C3.12835 4.40911 2.39566 4.02335 1.68392 4.24153L2.27008 6.15371C1.94409 6.25364 1.62615 6.07463 1.51792 5.79326L3.38458 5.07522ZM1.71445 4.2327C1.50476 4.28976 1.30168 4.36438 1.14762 4.42022L1.82913 6.30052C2.00132 6.23811 2.12399 6.19398 2.23955 6.16254L1.71445 4.2327ZM1.07795 4.44847C0.287735 4.80413 -0.414272 5.43962 -0.761184 6.32935L1.10218 7.05589C1.22852 6.73187 1.50477 6.44961 1.8988 6.27226L1.07795 4.44847ZM-0.758812 6.32332C-1.37911 7.88427 -0.721843 9.43618 0.192322 10.4218L1.65868 9.06171C1.06284 8.41931 0.861357 7.66197 1.09981 7.06191L-0.758812 6.32332ZM0.202411 10.4325C1.71377 12.0146 4.01928 12.5124 5.85102 12.6055L5.95248 10.608C4.28973 10.5236 2.62598 10.0741 1.64859 9.05099L0.202411 10.4325ZM4.90176 11.6039C4.88688 16.7419 4.90175 21.8687 4.90175 27.0009H6.90175C6.90175 21.8605 6.88688 16.7443 6.90175 11.6096L4.90176 11.6039ZM4.90507 27.0823C4.97842 27.9803 5.64637 28.4461 6.1277 28.6526C6.61466 28.8616 7.1462 28.924 7.50568 28.9331L7.55632 26.9337C7.3383 26.9282 7.08484 26.887 6.91636 26.8147C6.83691 26.7806 6.82288 26.7592 6.83682 26.7743C6.86287 26.8027 6.89353 26.8595 6.89843 26.9195L4.90507 27.0823ZM7.50652 28.9331C7.89739 28.9426 8.51133 28.8901 9.0686 28.685C9.57417 28.499 10.4518 28.0114 10.4711 26.9451L8.47142 26.9089C8.47302 26.8205 8.5199 26.7489 8.54215 26.7268C8.54516 26.7238 8.50441 26.7615 8.37794 26.8081C8.12067 26.9027 7.77199 26.939 7.55548 26.9337L7.50652 28.9331ZM10.4688 26.9965L10.5132 26.3599L8.51805 26.2208L8.47367 26.8575L10.4688 26.9965ZM10.5096 26.4002C10.6255 25.3505 11.2155 22.5784 12.1186 20.0743C12.5703 18.8217 13.0791 17.6974 13.6114 16.9041C14.1933 16.0368 14.5895 15.8788 14.7339 15.878L14.7231 13.878C13.4828 13.8847 12.5664 14.872 11.9506 15.7898C11.2852 16.7815 10.711 18.0819 10.2372 19.3957C9.28922 22.0243 8.65749 24.9509 8.52167 26.1806L10.5096 26.4002ZM14.7285 15.878C14.7906 15.878 14.8086 15.888 14.7985 15.8839C14.7936 15.8819 14.7845 15.8775 14.7732 15.8695C14.7619 15.8615 14.7517 15.8522 14.7433 15.8426C14.7257 15.8225 14.7266 15.8137 14.733 15.834C14.7399 15.856 14.7508 15.9052 14.7508 15.9882H16.7508C16.7508 15.4966 16.6252 14.9553 16.2471 14.524C15.8511 14.0725 15.2982 13.878 14.7285 13.878V15.878ZM14.7508 15.9882V24.1146H16.7508V15.9882H14.7508ZM14.7508 24.1146C14.7508 25.5553 15.1592 26.8714 16.0478 27.8371C16.9472 28.8146 18.2331 29.3183 19.7494 29.3183V27.3183C18.6886 27.3183 17.9753 26.9782 17.5196 26.4829C17.0531 25.9759 16.7508 25.1902 16.7508 24.1146H14.7508ZM19.7419 29.3182C22.2348 29.3368 24.3164 27.5577 25.4944 25.5905L23.7786 24.563C22.7941 26.207 21.2627 27.3295 19.7568 27.3183L19.7419 29.3182ZM23.8439 25.6865C23.8993 25.7585 23.9413 25.8224 24.026 25.9437C24.1001 26.0497 24.2012 26.1904 24.329 26.3297L25.8031 24.978C25.768 24.9398 25.7283 24.888 25.6653 24.798C25.6131 24.7232 25.5217 24.5873 25.4291 24.467L23.8439 25.6865ZM24.3064 26.3043C25.8936 28.158 28.2378 29.3461 30.9099 29.3627L30.9224 27.3628C28.855 27.3499 27.0522 26.436 25.8256 25.0035L24.3064 26.3043ZM30.9305 29.3626C33.8296 29.3211 36.0669 28.0412 37.5317 26.1427C38.9788 24.267 39.6475 21.8253 39.5424 19.4375L37.5443 19.5255C37.6314 21.5043 37.0706 23.4662 35.9482 24.921C34.8434 26.3528 33.171 27.3303 30.9018 27.3629L30.9305 29.3626ZM39.0288 20.3558C40.3216 19.638 41.5151 18.6972 42.4425 17.505L40.8638 16.277C40.1332 17.2163 39.1642 17.993 38.058 18.6072L39.0288 20.3558ZM40.6531 16.891V27.0009H42.6531V16.891H40.6531ZM40.6565 27.0825C40.7316 28.0008 41.4373 28.4601 41.9124 28.6573C42.4055 28.8619 42.9432 28.924 43.3018 28.9331L43.3524 26.9337C43.1333 26.9281 42.8637 26.8867 42.679 26.81C42.5907 26.7734 42.571 26.7486 42.5825 26.7608C42.6072 26.7867 42.6439 26.8473 42.6498 26.9193L40.6565 27.0825ZM43.3026 28.9331C43.6929 28.9426 44.3076 28.8902 44.864 28.6845C45.3685 28.4981 46.2524 28.0039 46.2524 26.927H44.2524C44.2524 26.8363 44.2997 26.7593 44.3264 26.7322C44.3329 26.7258 44.2959 26.7623 44.1707 26.8086C43.9162 26.9026 43.5682 26.939 43.3516 26.9337L43.3026 28.9331ZM46.2481 27.0195L46.3072 26.3829L44.3158 26.1979L44.2567 26.8345L46.2481 27.0195ZM46.306 26.395L46.4835 24.7076L44.4945 24.4984L44.317 26.1858L46.306 26.395ZM46.4826 24.7157C46.607 23.619 47.0946 21.2788 47.9086 19.2333C48.3165 18.2084 48.7823 17.3196 49.283 16.7036C49.7951 16.0736 50.2151 15.8795 50.5296 15.878L50.5197 13.878C49.331 13.8839 48.4033 14.615 47.731 15.4421C47.0474 16.2832 46.4923 17.3834 46.0504 18.4937C45.1649 20.7186 44.6379 23.2335 44.4954 24.4903L46.4826 24.7157ZM50.5246 15.878C50.5801 15.878 50.5935 15.8871 50.5804 15.8817C50.5741 15.8791 50.5641 15.8741 50.5526 15.8658C50.541 15.8574 50.5308 15.848 50.5227 15.8386C50.5057 15.8191 50.5072 15.8113 50.5139 15.8327C50.5211 15.8556 50.5319 15.9053 50.5319 15.9882H52.5319C52.5319 15.4963 52.4062 14.9577 52.0334 14.528C51.6423 14.0771 51.0936 13.878 50.5246 13.878V15.878ZM50.5319 15.9882V24.1146H52.5319V15.9882H50.5319ZM50.5319 24.1146C50.5319 25.5553 50.9405 26.8721 51.8317 27.8381C52.7336 28.8157 54.0232 29.3183 55.545 29.3183V27.3183C54.4755 27.3183 53.7585 26.9771 53.3017 26.482C52.8342 25.9752 52.5319 25.1902 52.5319 24.1146H50.5319ZM55.5367 29.3182C57.7779 29.3368 59.676 27.8911 60.8769 26.2044L59.2476 25.0444C58.2566 26.4364 56.8966 27.3294 55.5533 27.3183L55.5367 29.3182ZM59.2853 26.2539C60.943 28.2997 63.4611 29.4663 66.4008 29.4663V27.4663C64.0097 27.4663 62.0841 26.5311 60.8392 24.9948L59.2853 26.2539ZM66.4008 29.4663C69.8726 29.4663 72.4411 27.9128 74.1292 25.4319L72.4756 24.3068C71.1422 26.2667 69.1795 27.4663 66.4008 27.4663V29.4663ZM72.3179 25.045C72.5081 26.111 72.9075 27.1845 73.7121 28.0008C74.5398 28.8405 75.6899 29.3008 77.1562 29.3182L77.1799 27.3183C76.143 27.306 75.5306 26.9967 75.1365 26.5968C74.7192 26.1735 74.4373 25.5374 74.2868 24.6938L72.3179 25.045ZM77.1623 29.3182C78.9372 29.3284 80.3381 28.1112 81.3097 26.8698C82.3108 25.591 83.0507 24.0441 83.4806 22.896L81.6075 22.1948C81.2227 23.2227 80.5704 24.5697 79.7349 25.637C78.87 26.7418 77.9902 27.323 77.1738 27.3183L77.1623 29.3182ZM81.544 22.5454V28.3628H83.544V22.5454H81.544ZM82.3738 27.3774C81.5528 27.5192 80.7584 27.7225 79.9815 27.9508L80.5453 29.8697C81.2787 29.6542 81.9942 29.4726 82.7143 29.3482L82.3738 27.3774ZM79.9888 27.9487C75.5371 29.22 73.4851 32.3165 73.646 35.334C73.8046 38.3055 76.1354 40.9185 79.7229 40.9969L79.7666 38.9974C77.2523 38.9424 75.7475 37.1814 75.6432 35.2275C75.5414 33.3196 76.7996 30.9394 80.538 29.8718L79.9888 27.9487ZM79.7197 40.9968C82.0179 41.0544 83.9484 40.3255 85.2971 38.9085C86.6368 37.501 87.2989 35.5243 87.2909 33.2734L85.2909 33.2806C85.2975 35.1445 84.7526 36.5797 83.8485 37.5296C82.9535 38.4698 81.6037 39.0434 79.7698 38.9974L79.7197 40.9968ZM87.2909 33.277C87.2909 32.556 87.2761 31.2869 87.2907 30.6196L85.2911 30.5759C85.276 31.2706 85.2909 32.6068 85.2909 33.277H87.2909ZM86.1411 31.5865C86.4982 31.6406 86.9432 31.9383 87.4351 32.5462C87.9053 33.1272 88.2996 33.8441 88.5914 34.4413L90.3884 33.5635C90.0728 32.9173 89.6007 32.0429 88.9898 31.288C88.4005 30.5599 87.5497 29.7771 86.4407 29.609L86.1411 31.5865ZM88.6093 34.4762C88.6944 34.6344 88.7654 34.7885 88.8233 34.9388L90.6897 34.2202C90.5994 33.9855 90.4924 33.7551 90.3705 33.5286L88.6093 34.4762ZM88.8484 34.9982C89.1457 35.6431 89.82 35.9302 90.4548 35.794L90.0355 33.8385C90.1291 33.8184 90.2566 33.8219 90.3876 33.8845C90.5215 33.9485 90.6154 34.054 90.6646 34.1608L88.8484 34.9982ZM90.5073 35.7813C90.7222 35.7229 90.9494 35.6418 91.1673 35.5324L90.2705 33.7448C90.1924 33.784 90.0938 33.8211 89.983 33.8512L90.5073 35.7813ZM91.1204 35.5545C91.9216 35.2033 92.6358 34.5831 92.9865 33.6626L91.1175 32.9506C90.9945 33.2736 90.7309 33.5415 90.3174 33.7228L91.1204 35.5545ZM92.9813 33.676C93.6035 32.1108 92.9411 30.571 92.0082 29.5849L90.5553 30.9593C91.163 31.6017 91.3596 32.3415 91.1227 32.9372L92.9813 33.676ZM92.0129 29.5899C90.5122 27.9814 88.1793 27.5016 86.3802 27.394L86.2608 29.3905C87.9268 29.4901 89.5933 29.9283 90.5506 30.9543L92.0129 29.5899Z" fill="black" mask="url(#path-1-inside-1_44_1159)"/>
</svg>
